<mxfile host="app.diagrams.net" modified="2023-12-08T00:37:00.785Z" agent="Mozilla/5.0 (Windows NT 10.0; Win64; x64) AppleWebKit/537.36 (KHTML, like Gecko) Chrome/118.0.0.0 Safari/537.36 OPR/104.0.0.0" etag="NjplPsq62KEfWPjxYaWH" version="22.1.5" type="device">
  <diagram name="Page-1" id="c7488fd3-1785-93aa-aadb-54a6760d102a">
    <mxGraphModel dx="1233" dy="1517" grid="1" gridSize="10" guides="1" tooltips="1" connect="1" arrows="1" fold="1" page="1" pageScale="1" pageWidth="1100" pageHeight="850" background="none" math="0" shadow="0">
      <root>
        <mxCell id="0" />
        <mxCell id="1" parent="0" />
        <mxCell id="GA43ibc58BEPVchB-bz8-3" style="edgeStyle=orthogonalEdgeStyle;rounded=0;orthogonalLoop=1;jettySize=auto;html=1;fillColor=#dae8fc;strokeColor=#6c8ebf;" edge="1" parent="1" source="GA43ibc58BEPVchB-bz8-1" target="GA43ibc58BEPVchB-bz8-2">
          <mxGeometry relative="1" as="geometry" />
        </mxCell>
        <mxCell id="GA43ibc58BEPVchB-bz8-1" value="Binance" style="ellipse;whiteSpace=wrap;html=1;aspect=fixed;fillColor=#dae8fc;strokeColor=#6c8ebf;" vertex="1" parent="1">
          <mxGeometry x="80" y="200" width="80" height="80" as="geometry" />
        </mxCell>
        <mxCell id="GA43ibc58BEPVchB-bz8-10" style="edgeStyle=orthogonalEdgeStyle;rounded=0;orthogonalLoop=1;jettySize=auto;html=1;exitX=1;exitY=0.5;exitDx=0;exitDy=0;entryX=0;entryY=0.5;entryDx=0;entryDy=0;fillColor=#dae8fc;strokeColor=#6c8ebf;" edge="1" parent="1" source="GA43ibc58BEPVchB-bz8-2" target="GA43ibc58BEPVchB-bz8-4">
          <mxGeometry relative="1" as="geometry" />
        </mxCell>
        <mxCell id="GA43ibc58BEPVchB-bz8-11" style="edgeStyle=orthogonalEdgeStyle;rounded=0;orthogonalLoop=1;jettySize=auto;html=1;exitX=1;exitY=0.5;exitDx=0;exitDy=0;entryX=0;entryY=0.5;entryDx=0;entryDy=0;fillColor=#dae8fc;strokeColor=#6c8ebf;" edge="1" parent="1" source="GA43ibc58BEPVchB-bz8-2" target="GA43ibc58BEPVchB-bz8-5">
          <mxGeometry relative="1" as="geometry" />
        </mxCell>
        <mxCell id="GA43ibc58BEPVchB-bz8-2" value="BinAPIDataStreamEndpoint" style="rounded=1;whiteSpace=wrap;html=1;fillColor=#dae8fc;strokeColor=#6c8ebf;" vertex="1" parent="1">
          <mxGeometry x="200" y="210" width="170" height="60" as="geometry" />
        </mxCell>
        <mxCell id="GA43ibc58BEPVchB-bz8-12" style="edgeStyle=orthogonalEdgeStyle;rounded=0;orthogonalLoop=1;jettySize=auto;html=1;exitX=1;exitY=0.5;exitDx=0;exitDy=0;entryX=0;entryY=0.5;entryDx=0;entryDy=0;fillColor=#dae8fc;strokeColor=#6c8ebf;" edge="1" parent="1" source="GA43ibc58BEPVchB-bz8-4" target="GA43ibc58BEPVchB-bz8-7">
          <mxGeometry relative="1" as="geometry" />
        </mxCell>
        <mxCell id="GA43ibc58BEPVchB-bz8-4" value="OrderBookStreamForwarder" style="rounded=1;whiteSpace=wrap;html=1;fillColor=#dae8fc;strokeColor=#6c8ebf;" vertex="1" parent="1">
          <mxGeometry x="420" y="170" width="170" height="60" as="geometry" />
        </mxCell>
        <mxCell id="GA43ibc58BEPVchB-bz8-14" style="edgeStyle=orthogonalEdgeStyle;rounded=0;orthogonalLoop=1;jettySize=auto;html=1;exitX=1;exitY=0.5;exitDx=0;exitDy=0;entryX=0;entryY=0.5;entryDx=0;entryDy=0;fillColor=#dae8fc;strokeColor=#6c8ebf;" edge="1" parent="1" source="GA43ibc58BEPVchB-bz8-5" target="GA43ibc58BEPVchB-bz8-7">
          <mxGeometry relative="1" as="geometry" />
        </mxCell>
        <mxCell id="GA43ibc58BEPVchB-bz8-5" value="TradeStreamForwarder" style="rounded=1;whiteSpace=wrap;html=1;fillColor=#dae8fc;strokeColor=#6c8ebf;" vertex="1" parent="1">
          <mxGeometry x="420" y="250" width="170" height="60" as="geometry" />
        </mxCell>
        <mxCell id="GA43ibc58BEPVchB-bz8-18" style="edgeStyle=orthogonalEdgeStyle;rounded=0;orthogonalLoop=1;jettySize=auto;html=1;entryX=0;entryY=0.5;entryDx=0;entryDy=0;" edge="1" parent="1" source="GA43ibc58BEPVchB-bz8-6" target="GA43ibc58BEPVchB-bz8-16">
          <mxGeometry relative="1" as="geometry" />
        </mxCell>
        <mxCell id="GA43ibc58BEPVchB-bz8-22" style="edgeStyle=orthogonalEdgeStyle;rounded=0;orthogonalLoop=1;jettySize=auto;html=1;exitX=0.5;exitY=1;exitDx=0;exitDy=0;entryX=0.5;entryY=0;entryDx=0;entryDy=0;" edge="1" parent="1" source="GA43ibc58BEPVchB-bz8-6" target="GA43ibc58BEPVchB-bz8-21">
          <mxGeometry relative="1" as="geometry" />
        </mxCell>
        <mxCell id="GA43ibc58BEPVchB-bz8-47" style="edgeStyle=orthogonalEdgeStyle;rounded=0;orthogonalLoop=1;jettySize=auto;html=1;exitX=0.5;exitY=0;exitDx=0;exitDy=0;entryX=0.5;entryY=1;entryDx=0;entryDy=0;" edge="1" parent="1" source="GA43ibc58BEPVchB-bz8-6" target="GA43ibc58BEPVchB-bz8-45">
          <mxGeometry relative="1" as="geometry" />
        </mxCell>
        <mxCell id="GA43ibc58BEPVchB-bz8-6" value="MarketStreamEventLoop" style="rounded=1;whiteSpace=wrap;html=1;fillColor=#dae8fc;strokeColor=#6c8ebf;" vertex="1" parent="1">
          <mxGeometry x="850" y="210" width="170" height="60" as="geometry" />
        </mxCell>
        <mxCell id="GA43ibc58BEPVchB-bz8-15" style="edgeStyle=orthogonalEdgeStyle;rounded=0;orthogonalLoop=1;jettySize=auto;html=1;exitX=1;exitY=0.5;exitDx=0;exitDy=0;entryX=0;entryY=0.75;entryDx=0;entryDy=0;" edge="1" parent="1" source="GA43ibc58BEPVchB-bz8-7" target="GA43ibc58BEPVchB-bz8-6">
          <mxGeometry relative="1" as="geometry" />
        </mxCell>
        <mxCell id="GA43ibc58BEPVchB-bz8-7" value="MarketStreamForwarder" style="rounded=1;whiteSpace=wrap;html=1;fillColor=#dae8fc;strokeColor=#6c8ebf;" vertex="1" parent="1">
          <mxGeometry x="640" y="250" width="170" height="60" as="geometry" />
        </mxCell>
        <mxCell id="GA43ibc58BEPVchB-bz8-16" value="Analyzer" style="rounded=1;whiteSpace=wrap;html=1;fillColor=#f8cecc;strokeColor=#b85450;" vertex="1" parent="1">
          <mxGeometry x="1070" y="140" width="120" height="60" as="geometry" />
        </mxCell>
        <mxCell id="GA43ibc58BEPVchB-bz8-20" style="edgeStyle=orthogonalEdgeStyle;rounded=0;orthogonalLoop=1;jettySize=auto;html=1;exitX=0.5;exitY=0;exitDx=0;exitDy=0;entryX=0.5;entryY=1;entryDx=0;entryDy=0;" edge="1" parent="1" source="GA43ibc58BEPVchB-bz8-17" target="GA43ibc58BEPVchB-bz8-16">
          <mxGeometry relative="1" as="geometry" />
        </mxCell>
        <mxCell id="GA43ibc58BEPVchB-bz8-25" style="edgeStyle=orthogonalEdgeStyle;rounded=0;orthogonalLoop=1;jettySize=auto;html=1;exitX=1;exitY=0.5;exitDx=0;exitDy=0;entryX=0;entryY=0.5;entryDx=0;entryDy=0;" edge="1" parent="1" source="GA43ibc58BEPVchB-bz8-17" target="GA43ibc58BEPVchB-bz8-23">
          <mxGeometry relative="1" as="geometry" />
        </mxCell>
        <mxCell id="GA43ibc58BEPVchB-bz8-17" value="Dealer" style="rounded=1;whiteSpace=wrap;html=1;fillColor=#f8cecc;strokeColor=#b85450;" vertex="1" parent="1">
          <mxGeometry x="1070" y="270" width="120" height="60" as="geometry" />
        </mxCell>
        <mxCell id="GA43ibc58BEPVchB-bz8-21" value="MarketStreamSaver" style="rounded=1;whiteSpace=wrap;html=1;fillColor=#dae8fc;strokeColor=#6c8ebf;" vertex="1" parent="1">
          <mxGeometry x="862.5" y="310" width="145" height="60" as="geometry" />
        </mxCell>
        <mxCell id="GA43ibc58BEPVchB-bz8-27" style="edgeStyle=orthogonalEdgeStyle;rounded=0;orthogonalLoop=1;jettySize=auto;html=1;exitX=1;exitY=0.5;exitDx=0;exitDy=0;entryX=0;entryY=0.5;entryDx=0;entryDy=0;" edge="1" parent="1" source="GA43ibc58BEPVchB-bz8-23" target="GA43ibc58BEPVchB-bz8-26">
          <mxGeometry relative="1" as="geometry" />
        </mxCell>
        <mxCell id="GA43ibc58BEPVchB-bz8-23" value="DealHandler" style="rounded=1;whiteSpace=wrap;html=1;fillColor=#f8cecc;strokeColor=#b85450;" vertex="1" parent="1">
          <mxGeometry x="1240" y="210" width="120" height="60" as="geometry" />
        </mxCell>
        <mxCell id="GA43ibc58BEPVchB-bz8-29" style="edgeStyle=orthogonalEdgeStyle;rounded=0;orthogonalLoop=1;jettySize=auto;html=1;exitX=1;exitY=0.5;exitDx=0;exitDy=0;entryX=0;entryY=0.5;entryDx=0;entryDy=0;" edge="1" parent="1" source="GA43ibc58BEPVchB-bz8-26" target="GA43ibc58BEPVchB-bz8-28">
          <mxGeometry relative="1" as="geometry" />
        </mxCell>
        <mxCell id="GA43ibc58BEPVchB-bz8-26" value="BinAPIAccountEndpoint" style="rounded=1;whiteSpace=wrap;html=1;fillColor=#fff2cc;strokeColor=#d6b656;" vertex="1" parent="1">
          <mxGeometry x="1410" y="210" width="150" height="60" as="geometry" />
        </mxCell>
        <mxCell id="GA43ibc58BEPVchB-bz8-28" value="Binance" style="ellipse;whiteSpace=wrap;html=1;aspect=fixed;fillColor=#fff2cc;strokeColor=#d6b656;" vertex="1" parent="1">
          <mxGeometry x="1610" y="200" width="80" height="80" as="geometry" />
        </mxCell>
        <mxCell id="GA43ibc58BEPVchB-bz8-32" style="edgeStyle=orthogonalEdgeStyle;rounded=0;orthogonalLoop=1;jettySize=auto;html=1;exitX=0.5;exitY=1;exitDx=0;exitDy=0;entryX=0;entryY=0.25;entryDx=0;entryDy=0;dashed=1;" edge="1" parent="1" source="GA43ibc58BEPVchB-bz8-30" target="GA43ibc58BEPVchB-bz8-6">
          <mxGeometry relative="1" as="geometry" />
        </mxCell>
        <mxCell id="GA43ibc58BEPVchB-bz8-30" value="SavedMarketStreamForwarder" style="rounded=1;whiteSpace=wrap;html=1;dashed=1;fillColor=#dae8fc;strokeColor=#6c8ebf;" vertex="1" parent="1">
          <mxGeometry x="630" y="100" width="190" height="60" as="geometry" />
        </mxCell>
        <mxCell id="GA43ibc58BEPVchB-bz8-34" value="" style="rounded=1;whiteSpace=wrap;html=1;dashed=1;fillColor=none;" vertex="1" parent="1">
          <mxGeometry x="610" y="80" width="230" height="100" as="geometry" />
        </mxCell>
        <mxCell id="GA43ibc58BEPVchB-bz8-39" style="edgeStyle=orthogonalEdgeStyle;rounded=0;orthogonalLoop=1;jettySize=auto;html=1;exitX=0;exitY=0.5;exitDx=0;exitDy=0;entryX=0.5;entryY=0;entryDx=0;entryDy=0;dashed=1;" edge="1" parent="1" source="GA43ibc58BEPVchB-bz8-35" target="GA43ibc58BEPVchB-bz8-34">
          <mxGeometry relative="1" as="geometry" />
        </mxCell>
        <mxCell id="GA43ibc58BEPVchB-bz8-48" style="edgeStyle=orthogonalEdgeStyle;rounded=0;orthogonalLoop=1;jettySize=auto;html=1;exitX=0.5;exitY=1;exitDx=0;exitDy=0;entryX=0.5;entryY=0;entryDx=0;entryDy=0;" edge="1" parent="1" source="GA43ibc58BEPVchB-bz8-35" target="GA43ibc58BEPVchB-bz8-45">
          <mxGeometry relative="1" as="geometry" />
        </mxCell>
        <mxCell id="GA43ibc58BEPVchB-bz8-35" value="BenchmarkManager" style="rounded=1;whiteSpace=wrap;html=1;fillColor=#f8cecc;strokeColor=#b85450;" vertex="1" parent="1">
          <mxGeometry x="870" y="-120" width="130" height="60" as="geometry" />
        </mxCell>
        <mxCell id="GA43ibc58BEPVchB-bz8-38" style="edgeStyle=orthogonalEdgeStyle;rounded=0;orthogonalLoop=1;jettySize=auto;html=1;exitX=0.5;exitY=0;exitDx=0;exitDy=0;entryX=1;entryY=0.5;entryDx=0;entryDy=0;" edge="1" parent="1" source="GA43ibc58BEPVchB-bz8-36" target="GA43ibc58BEPVchB-bz8-35">
          <mxGeometry relative="1" as="geometry" />
        </mxCell>
        <mxCell id="GA43ibc58BEPVchB-bz8-36" value="" style="rounded=1;whiteSpace=wrap;html=1;fillColor=none;dashed=1;" vertex="1" parent="1">
          <mxGeometry x="1050" y="120" width="160" height="230" as="geometry" />
        </mxCell>
        <mxCell id="GA43ibc58BEPVchB-bz8-42" value="FakeDealHandler" style="rounded=1;whiteSpace=wrap;html=1;fillColor=#f8cecc;strokeColor=#b85450;" vertex="1" parent="1">
          <mxGeometry x="1240" y="130" width="120" height="60" as="geometry" />
        </mxCell>
        <mxCell id="GA43ibc58BEPVchB-bz8-44" style="edgeStyle=orthogonalEdgeStyle;rounded=0;orthogonalLoop=1;jettySize=auto;html=1;exitX=0.5;exitY=0;exitDx=0;exitDy=0;entryX=1;entryY=0.25;entryDx=0;entryDy=0;" edge="1" parent="1" source="GA43ibc58BEPVchB-bz8-43" target="GA43ibc58BEPVchB-bz8-35">
          <mxGeometry relative="1" as="geometry" />
        </mxCell>
        <mxCell id="GA43ibc58BEPVchB-bz8-43" value="" style="rounded=1;whiteSpace=wrap;html=1;fillColor=none;dashed=1;" vertex="1" parent="1">
          <mxGeometry x="1230" y="110" width="140" height="180" as="geometry" />
        </mxCell>
        <mxCell id="GA43ibc58BEPVchB-bz8-45" value="RealMarketHandler" style="rounded=1;whiteSpace=wrap;html=1;fillColor=#f8cecc;strokeColor=#b85450;" vertex="1" parent="1">
          <mxGeometry x="870" y="10" width="130" height="60" as="geometry" />
        </mxCell>
      </root>
    </mxGraphModel>
  </diagram>
</mxfile>
